<svg width="20" height="20" viewBox="0 0 20 20" fill="none" xmlns="http://www.w3.org/2000/svg">
<path fill-rule="evenodd" clip-rule="evenodd" d="M18 0.680664H2C0.9 0.680664 0.01 1.54674 0.01 2.60527L0 19.9267L4 15.1152H18C19.1 15.1152 20 14.2491 20 13.1906V2.60527C20 1.54674 19.1 0.680664 18 0.680664ZM11 11.266H5C4.45 11.266 4 10.8329 4 10.3037C4 9.77441 4.45 9.34138 5 9.34138H11C11.55 9.34138 12 9.77441 12 10.3037C12 10.8329 11.55 11.266 11 11.266ZM15 6.45447H5C4.45 6.45447 4 6.02144 4 5.49217C4 4.96291 4.45 4.52987 5 4.52987H15C15.55 4.52987 16 4.96291 16 5.49217C16 6.02144 15.55 6.45447 15 6.45447Z" fill="white"/>
</svg>
