<svg width="18" height="18" viewBox="0 0 18 18" fill="none" xmlns="http://www.w3.org/2000/svg">
<path fill-rule="evenodd" clip-rule="evenodd" d="M1.76019 12.4689L4.30019 12.1898C4.91019 12.1224 5.51019 12.3245 5.94019 12.7383L7.78019 14.5089C10.6102 13.1232 12.9302 10.9003 14.3702 8.16737L12.5202 6.38711C12.0902 5.97332 11.8802 5.39594 11.9502 4.80894L12.2402 2.38394C12.3602 1.41201 13.2102 0.680664 14.2302 0.680664H15.9602C17.0902 0.680664 18.0302 1.58523 17.9602 2.67263C17.4302 10.8907 10.6002 17.4536 2.07019 17.9636C0.940193 18.031 0.00019455 17.1264 0.00019455 16.039V14.3742C-0.00980545 13.4023 0.750193 12.5843 1.76019 12.4689Z" fill="white"/>
</svg>
