<svg width="8" height="12" viewBox="0 0 8 12" fill="none" xmlns="http://www.w3.org/2000/svg">
<path fill-rule="evenodd" clip-rule="evenodd" d="M6.46777 1.21971L4.00015 3.85266L1.53253 1.21971C1.24426 0.912116 0.756049 0.912116 0.467772 1.21971C0.204754 1.50035 0.204753 1.93697 0.467771 2.21761L3.27051 5.20813C3.6656 5.6297 4.3347 5.6297 4.7298 5.20813L7.53253 2.21761C7.79555 1.93697 7.79555 1.50035 7.53253 1.21971C7.24426 0.912116 6.75605 0.912116 6.46777 1.21971ZM6.46777 7.62172L4.00015 10.2547L1.53253 7.62172C1.24426 7.31413 0.756049 7.31413 0.467772 7.62172C0.204754 7.90236 0.204753 8.33898 0.467771 8.61962L3.27051 11.6101C3.6656 12.0317 4.3347 12.0317 4.7298 11.6101L7.53253 8.61962C7.79555 8.33898 7.79555 7.90236 7.53253 7.62172C7.24426 7.31413 6.75605 7.31413 6.46777 7.62172Z" fill="#41F6D7"/>
</svg>
