<svg width="20" height="22" viewBox="0 0 20 22" fill="none" xmlns="http://www.w3.org/2000/svg">
<path d="M8.25807 14.6381L8.66685 14.2019L6.94998 12.3696L6.54121 12.8059L6.33682 12.5878C6.0098 12.1951 5.68278 11.977 5.35575 12.0206C5.11049 12.0206 4.9061 12.1951 4.74259 12.4569C4.49732 12.8931 4.61996 13.373 4.66083 13.6784C4.66083 13.7656 4.70171 13.8093 4.70171 13.8965C4.70171 14.0274 4.70171 14.2019 4.41557 14.2455C4.00679 14.3764 3.47538 14.5073 2.94397 14.8126C2.20817 15.2489 1.71764 15.6415 1.4315 16.0341C-0.0809772 18.1281 0.000778159 19.9168 0.000778159 20.004C0.000778159 20.1349 0.0416558 20.2222 0.123411 20.2658L1.22711 21.4873C1.30886 21.5745 1.39062 21.6182 1.47237 21.6182C1.47237 21.6182 1.51325 21.6182 1.59501 21.6182C2.00378 21.6182 3.47538 21.5309 5.19224 20.0913C5.56014 19.7859 5.92804 19.2624 6.33682 18.4771C6.62296 17.9536 6.78647 17.3865 6.86823 16.9066C6.94998 16.6013 7.07262 16.6013 7.19525 16.6013C7.23613 16.6013 7.31788 16.6449 7.39964 16.6449C7.56315 16.6885 7.72666 16.7321 7.93105 16.7321C8.13544 16.7321 8.33983 16.6885 8.54421 16.5576C8.78948 16.3831 8.95299 16.165 8.99387 15.9033C9.03475 15.5543 8.87123 15.2053 8.50334 14.8999L8.25807 14.6381Z" fill="white"/>
<path d="M16.884 5.48335L18.0188 4.89396C18.0609 4.84862 18.1449 4.80328 18.1869 4.75795L19.9101 2.26438C20.0362 2.08303 20.0362 1.811 19.8681 1.67499L18.6913 0.405538C18.5652 0.269525 18.313 0.224187 18.1449 0.3602L15.8333 2.21904C15.7913 2.26438 15.7493 2.30972 15.7072 2.40039L15.1609 3.62451L11 7.97691L12.7652 9.88109L16.884 5.48335Z" fill="white"/>
<path d="M17.8527 14.1969C16.8636 13.0859 15.4393 12.686 14.0941 13.0859L7.64527 5.79801C7.72439 5.39806 7.76396 5.04255 7.76396 4.64261C7.76396 3.53164 7.36832 2.42068 6.61661 1.57635C5.58796 0.37651 4.04498 -0.0234362 2.6207 0.509826C2.54157 0.554264 2.42288 0.68758 2.38331 0.865334C2.38331 0.998649 2.42288 1.13196 2.50201 1.26528L4.44062 3.44277C4.87582 3.93159 4.87582 4.77592 4.44062 5.26474C4.00542 5.75357 3.25371 5.75357 2.81851 5.26474L0.8799 3.08726C0.76121 2.99838 0.642519 2.95394 0.484265 2.99838C0.365574 2.99838 0.246884 3.1317 0.20732 3.26501C-0.267442 4.82036 0.0886295 6.55346 1.11728 7.70886C1.82943 8.55319 2.85808 8.99758 3.88673 8.99758C4.20324 8.99758 4.55931 8.95314 4.87582 8.86426L11.3642 16.1522C11.0082 17.6631 11.4038 19.2629 12.3533 20.3738C13.105 21.2182 14.0546 21.6181 15.0832 21.6181C15.5184 21.6181 15.914 21.5292 16.3492 21.3959C16.4679 21.3515 16.5866 21.2182 16.6262 21.0848C16.6658 20.9515 16.6262 20.7738 16.5075 20.6849L14.5689 18.5074C14.3711 18.2852 14.2128 17.9297 14.2128 17.5742C14.2128 17.2187 14.3315 16.9076 14.5689 16.641C14.8063 16.3744 15.0832 16.2411 15.3997 16.2411C15.7162 16.2411 15.9932 16.3744 16.2306 16.641L18.1692 18.8185C18.2879 18.9074 18.4065 18.9518 18.5252 18.9518C18.6439 18.9074 18.7626 18.8185 18.8022 18.6852C18.9209 18.2408 19 17.752 19 17.2631C19 16.1077 18.6044 14.9968 17.8527 14.1969Z" fill="white"/>
</svg>
