<svg width="16" height="22" viewBox="0 0 16 22" fill="none" xmlns="http://www.w3.org/2000/svg">
<path fill-rule="evenodd" clip-rule="evenodd" d="M0 1.27808C0 0.725791 0.447715 0.278076 1 0.278076H15C15.5523 0.278076 16 0.725792 16 1.27808V20.0176C15.1716 20.0176 14.5 20.7341 14.5 21.618H13.5C13.5 20.7341 12.8284 20.0176 12 20.0176C11.1716 20.0176 10.5 20.7341 10.5 21.618H9.5C9.49995 20.7341 8.8284 20.0176 8 20.0176C7.1716 20.0176 6.50005 20.7341 6.5 21.618H5.5C5.49995 20.7341 4.8284 20.0176 4 20.0176C3.1716 20.0176 2.50005 20.7341 2.5 21.618H1.5C1.49995 20.7341 0.828399 20.0176 0 20.0176V1.27808ZM9.41631 12.8563C8.55357 13.4495 7.47034 13.7154 6.32961 13.4904C4.52743 13.1324 3.08953 11.5164 2.85946 9.5731C2.4952 6.49449 4.94922 3.92728 7.85379 4.41822C9.65596 4.72506 11.1034 6.30016 11.4006 8.21279C11.5828 9.39923 11.3239 10.4936 10.7871 11.4039L12.896 13.6438C13.2699 14.0427 13.2699 14.6973 12.896 15.0962C12.5126 15.5053 11.8991 15.5053 11.5252 15.1064L9.41631 12.8563ZM4.70582 8.87678C4.70582 7.49093 5.75994 6.36619 7.05876 6.36619C8.35758 6.36619 9.4117 7.49093 9.4117 8.87678C9.4117 10.2626 8.35758 11.3874 7.05876 11.3874C5.75994 11.3874 4.70582 10.2626 4.70582 8.87678Z" fill="white"/>
</svg>
